<svg width="115" height="30" viewBox="0 0 115 30" fill="none" xmlns="http://www.w3.org/2000/svg">
<path d="M79.2836 30C84.2871 30 88.3432 25.568 88.3432 20.101C88.3432 14.6339 84.2871 10.202 79.2836 10.202C74.2801 10.202 70.224 14.6339 70.224 20.101C70.224 25.568 74.2801 30 79.2836 30Z" fill="#00A85A"/>
<path fill-rule="evenodd" clip-rule="evenodd" d="M79.5408 21.3247C81.6958 21.3247 83.444 21.747 83.444 22.2668V22.7161C83.444 23.2358 81.6965 23.6582 79.5408 23.6582C77.3851 23.6582 75.637 23.2358 75.637 22.7161V22.2668C75.637 21.7463 77.3851 21.3247 79.5408 21.3247Z" fill="url(#paint0_linear)"/>
<path d="M79.5406 23.2092C81.6964 23.2092 83.4441 22.7875 83.4441 22.2672C83.4441 21.747 81.6964 21.3252 79.5406 21.3252C77.3847 21.3252 75.6371 21.747 75.6371 22.2672C75.6371 22.7875 77.3847 23.2092 79.5406 23.2092Z" fill="#EEDA32"/>
<path d="M79.5475 23.1075C81.638 23.1075 83.3328 22.7314 83.3328 22.2674C83.3328 21.8035 81.638 21.4274 79.5475 21.4274C77.4569 21.4274 75.7622 21.8035 75.7622 22.2674C75.7622 22.7314 77.4569 23.1075 79.5475 23.1075Z" fill="url(#paint1_radial)"/>
<path fill-rule="evenodd" clip-rule="evenodd" d="M79.5406 20.6389C81.6956 20.6389 83.4437 21.0613 83.4437 21.581V22.031C83.4437 22.5507 81.6963 22.9716 79.5406 22.9716C77.3849 22.9716 75.6367 22.5507 75.6367 22.031V21.581C75.6367 21.0605 77.3849 20.6389 79.5406 20.6389Z" fill="url(#paint2_linear)"/>
<path d="M79.5404 22.5232C81.6962 22.5232 83.4439 22.1014 83.4439 21.5812C83.4439 21.0609 81.6962 20.6392 79.5404 20.6392C77.3845 20.6392 75.6368 21.0609 75.6368 21.5812C75.6368 22.1014 77.3845 22.5232 79.5404 22.5232Z" fill="#EEDA32"/>
<path d="M79.5472 22.4214C81.6378 22.4214 83.3325 22.0453 83.3325 21.5814C83.3325 21.1174 81.6378 20.7413 79.5472 20.7413C77.4567 20.7413 75.762 21.1174 75.762 21.5814C75.762 22.0453 77.4567 22.4214 79.5472 22.4214Z" fill="url(#paint3_radial)"/>
<path fill-rule="evenodd" clip-rule="evenodd" d="M79.0282 19.6157C81.1839 19.6157 82.932 20.0373 82.932 20.5578V21.0056C82.932 21.5261 81.1839 21.9477 79.0282 21.9477C76.8725 21.9477 75.125 21.5261 75.125 21.0056V20.5578C75.1243 20.0388 76.8731 19.6157 79.0282 19.6157Z" fill="url(#paint4_linear)"/>
<path d="M79.0273 21.4998C81.1831 21.4998 82.9308 21.078 82.9308 20.5578C82.9308 20.0375 81.1831 19.6157 79.0273 19.6157C76.8714 19.6157 75.1238 20.0375 75.1238 20.5578C75.1238 21.078 76.8714 21.4998 79.0273 21.4998Z" fill="#EEDA32"/>
<path d="M79.0343 21.398C81.1249 21.398 82.8196 21.0219 82.8196 20.5579C82.8196 20.094 81.1249 19.7179 79.0343 19.7179C76.9438 19.7179 75.249 20.094 75.249 20.5579C75.249 21.0219 76.9438 21.398 79.0343 21.398Z" fill="url(#paint5_radial)"/>
<path fill-rule="evenodd" clip-rule="evenodd" d="M79.5406 18.5913C81.6956 18.5913 83.4437 19.0136 83.4437 19.5334V19.9819C83.4437 20.5017 81.6963 20.924 79.5406 20.924C77.3849 20.924 75.6367 20.5017 75.6367 19.9819V19.5334C75.6367 19.0136 77.3849 18.5913 79.5406 18.5913Z" fill="url(#paint6_linear)"/>
<path d="M79.5404 20.475C81.6962 20.475 83.4439 20.0532 83.4439 19.533C83.4439 19.0127 81.6962 18.5909 79.5404 18.5909C77.3845 18.5909 75.6368 19.0127 75.6368 19.533C75.6368 20.0532 77.3845 20.475 79.5404 20.475Z" fill="#EEDA32"/>
<path d="M79.5472 20.3734C81.6378 20.3734 83.3325 19.9973 83.3325 19.5334C83.3325 19.0695 81.6378 18.6934 79.5472 18.6934C77.4567 18.6934 75.762 19.0695 75.762 19.5334C75.762 19.9973 77.4567 20.3734 79.5472 20.3734Z" fill="url(#paint7_radial)"/>
<path fill-rule="evenodd" clip-rule="evenodd" d="M79.5406 17.5676C81.6956 17.5676 83.4437 17.99 83.4437 18.509V18.9575C83.4437 19.478 81.6963 19.9003 79.5406 19.9003C77.3849 19.9003 75.6367 19.478 75.6367 18.9575V18.5119C75.6367 17.9899 77.3849 17.5676 79.5406 17.5676Z" fill="url(#paint8_linear)"/>
<path d="M79.5404 19.4517C81.6962 19.4517 83.4439 19.0299 83.4439 18.5097C83.4439 17.9894 81.6962 17.5676 79.5404 17.5676C77.3845 17.5676 75.6368 17.9894 75.6368 18.5097C75.6368 19.0299 77.3845 19.4517 79.5404 19.4517Z" fill="#EEDA32"/>
<path d="M79.5472 19.35C81.6378 19.35 83.3325 18.9739 83.3325 18.51C83.3325 18.046 81.6378 17.6699 79.5472 17.6699C77.4567 17.6699 75.762 18.046 75.762 18.51C75.762 18.9739 77.4567 19.35 79.5472 19.35Z" fill="url(#paint9_radial)"/>
<path fill-rule="evenodd" clip-rule="evenodd" d="M79.0282 16.5441C81.1839 16.5441 82.932 16.9664 82.932 17.4862V17.9347C82.932 18.4544 81.1839 18.8768 79.0282 18.8768C76.8725 18.8768 75.125 18.4544 75.125 17.9347V17.4862C75.1243 16.9664 76.8732 16.5441 79.0282 16.5441Z" fill="url(#paint10_linear)"/>
<path d="M79.0273 18.4278C81.1831 18.4278 82.9308 18.006 82.9308 17.4857C82.9308 16.9655 81.1831 16.5437 79.0273 16.5437C76.8714 16.5437 75.1238 16.9655 75.1238 17.4857C75.1238 18.006 76.8714 18.4278 79.0273 18.4278Z" fill="#EEDA32"/>
<path d="M79.0343 18.3263C81.1249 18.3263 82.8196 17.9502 82.8196 17.4863C82.8196 17.0223 81.1249 16.6462 79.0343 16.6462C76.9438 16.6462 75.249 17.0223 75.249 17.4863C75.249 17.9502 76.9438 18.3263 79.0343 18.3263Z" fill="url(#paint11_radial)"/>
<path d="M75.4112 12.7696C77.0651 11.7264 79.0131 11.3878 80.8817 11.8179C82.7504 12.2481 84.4078 13.4167 85.536 15.1002L84.1889 15.9516C83.2714 14.6526 81.954 13.7612 80.4807 13.4432C79.0073 13.1253 77.4782 13.4026 76.1776 14.223C74.8769 15.0434 73.8927 16.3514 73.4079 17.9045C72.923 19.4576 72.9709 21.1504 73.5415 22.6682L72.1925 23.5182C71.4216 21.6085 71.3233 19.4545 71.917 17.4707C72.5107 15.4869 73.754 13.8128 75.4085 12.7696H75.4112ZM86.3732 16.685C87.1463 18.5951 87.2458 20.7498 86.6527 22.7354C86.0597 24.7209 84.816 26.3966 83.1606 27.4409C81.5051 28.4851 79.5548 28.8243 77.6846 28.3926C75.8144 27.9608 74.1564 26.7888 73.0291 25.1021L74.3768 24.2522C75.2953 25.5488 76.6126 26.4375 78.085 26.754C79.5574 27.0704 81.0845 26.7932 82.3841 25.9734C83.6836 25.1536 84.6677 23.8471 85.1531 22.2957C85.6385 20.7442 85.5924 19.0531 85.0241 17.5356L86.3732 16.685Z" fill="#FEFEFE"/>
<path d="M0 18.6972C0 24.392 3.37407 28.1786 7.59238 28.1786C8.66767 28.2174 9.73526 27.9674 10.7017 27.4508C11.6682 26.9343 12.5041 26.167 13.1362 25.2158V27.8817H17.3841V9.64372H13.1362V12.244C12.4994 11.3107 11.6653 10.5599 10.7053 10.0554C9.74517 9.55087 8.68752 9.30766 7.62276 9.34677C3.37403 9.34753 0 13.0025 0 18.6972ZM13.1369 18.7633C13.1369 22.2196 11.028 24.1268 8.70765 24.1268C6.44812 24.1268 4.30884 22.152 4.30884 18.6958C4.30884 15.2395 6.44812 13.3945 8.70765 13.3945C11.0273 13.396 13.1362 15.307 13.1362 18.7633H13.1369ZM19.3547 18.6972C19.3547 24.392 22.7287 28.1786 26.9774 28.1786C28.0492 28.23 29.1154 27.9818 30.075 27.4575C31.0345 26.9332 31.8557 26.1499 32.4611 25.1822V27.8817H36.7396V0H32.4611V12.1791C31.8108 11.283 30.981 10.5618 30.0356 10.0709C29.0903 9.58002 28.0546 9.33251 27.008 9.34751C22.7268 9.34751 19.354 13.0025 19.354 18.6972H19.3547ZM32.4915 18.7633C32.4915 22.2196 30.3827 24.1268 28.0623 24.1268C25.8028 24.1268 23.6635 22.152 23.6635 18.6958C23.6635 15.2395 25.8028 13.3945 28.0623 13.3945C30.3813 13.396 32.4902 15.307 32.4902 18.7633H32.4915Z" fill="#00A85A"/>
<path d="M61.6879 28.1793H65.9055V17.4802C65.9055 12.4435 63.0707 9.67835 59.0653 9.67835C57.9159 9.66568 56.7836 9.98045 55.7798 10.5924C54.776 11.2044 53.9357 12.0925 53.3419 13.168C52.1963 10.8963 50.057 9.67835 47.4649 9.67835C42.7951 9.67835 42.5558 14.1996 42.5558 9.94173H38.3381V28.1801H42.5558V18.1059C42.5558 15.2086 44.0325 13.6948 46.3225 13.6948C48.5516 13.6948 50.028 15.2056 50.028 18.1059V28.1801H54.2454V18.1059C54.2454 15.2086 55.7218 13.6948 57.9793 13.6948C60.2091 13.6948 61.6852 15.2056 61.6852 18.1059L61.6879 28.1793Z" fill="#FAD129"/>
<path d="M104.428 28.1776H108.646V17.4785C108.646 12.4425 105.874 9.67698 101.988 9.67698C101.027 9.64718 100.073 9.86034 99.1998 10.3C98.327 10.7397 97.5593 11.394 96.9561 12.2116V9.93962H92.7388V28.1776H96.9561V18.1049C96.9561 15.1751 98.4331 13.5945 100.723 13.5945C102.952 13.5945 104.428 15.1751 104.428 18.1049V28.1776ZM110.506 28.1776H114.724V9.93962H110.506V28.1776ZM112.645 7.7669C113.129 7.74162 113.595 7.56208 113.986 7.2501C114.376 6.93811 114.675 6.50736 114.844 6.01175C115.014 5.51615 115.045 4.97717 114.937 4.46171C114.828 3.94624 114.584 3.47698 114.233 3.11196C113.883 2.74694 113.442 2.50247 112.966 2.4085C112.49 2.31454 111.998 2.37522 111.553 2.58335C111.108 2.79149 110.729 3.13788 110.462 3.57934C110.196 4.0208 110.054 4.53811 110.054 5.06705C110.056 5.43215 110.125 5.79311 110.257 6.12832C110.389 6.46354 110.582 6.76603 110.824 7.01807C111.066 7.27011 111.352 7.4662 111.665 7.595C111.978 7.7238 112.311 7.78255 112.645 7.76764L112.645 7.7669Z" fill="#FAD129"/>
<defs>
<linearGradient id="paint0_linear" x1="75.637" y1="22.4914" x2="83.444" y2="22.4914" gradientUnits="userSpaceOnUse">
<stop stop-color="#EEDA32"/>
<stop offset="0.459" stop-color="#C49C17"/>
<stop offset="1" stop-color="#FFCC00"/>
</linearGradient>
<radialGradient id="paint1_radial" cx="0" cy="0" r="1" gradientUnits="userSpaceOnUse" gradientTransform="translate(76.6397 19.3513) rotate(-79.9369) scale(16.5291 0.949449)">
<stop stop-color="#FFCC00"/>
<stop offset="0.541" stop-color="#C49C17"/>
<stop offset="1" stop-color="#EEDA32"/>
</radialGradient>
<linearGradient id="paint2_linear" x1="75.6367" y1="21.8053" x2="83.4437" y2="21.8053" gradientUnits="userSpaceOnUse">
<stop stop-color="#EEDA32"/>
<stop offset="0.459" stop-color="#C49C17"/>
<stop offset="1" stop-color="#FFCC00"/>
</linearGradient>
<radialGradient id="paint3_radial" cx="0" cy="0" r="1" gradientUnits="userSpaceOnUse" gradientTransform="translate(79.5472 21.5797) scale(20.6298 4.5782)">
<stop stop-color="#FFCC00"/>
<stop offset="0.541" stop-color="#C49C17"/>
<stop offset="1" stop-color="#EEDA32"/>
</radialGradient>
<linearGradient id="paint4_linear" x1="75.125" y1="20.7817" x2="82.932" y2="20.7817" gradientUnits="userSpaceOnUse">
<stop stop-color="#EEDA32"/>
<stop offset="0.459" stop-color="#C49C17"/>
<stop offset="1" stop-color="#FFCC00"/>
</linearGradient>
<radialGradient id="paint5_radial" cx="0" cy="0" r="1" gradientUnits="userSpaceOnUse" gradientTransform="translate(79.0267 20.5596) scale(20.6299 4.5782)">
<stop stop-color="#FFCC00"/>
<stop offset="0.541" stop-color="#C49C17"/>
<stop offset="1" stop-color="#EEDA32"/>
</radialGradient>
<linearGradient id="paint6_linear" x1="75.6367" y1="19.7577" x2="83.4437" y2="19.7577" gradientUnits="userSpaceOnUse">
<stop stop-color="#EEDA32"/>
<stop offset="0.459" stop-color="#C49C17"/>
<stop offset="1" stop-color="#FFCC00"/>
</linearGradient>
<radialGradient id="paint7_radial" cx="0" cy="0" r="1" gradientUnits="userSpaceOnUse" gradientTransform="translate(79.5472 19.5317) scale(20.6298 4.57825)">
<stop stop-color="#FFCC00"/>
<stop offset="0.541" stop-color="#C49C17"/>
<stop offset="1" stop-color="#EEDA32"/>
</radialGradient>
<linearGradient id="paint8_linear" x1="75.6367" y1="18.734" x2="83.4437" y2="18.734" gradientUnits="userSpaceOnUse">
<stop stop-color="#EEDA32"/>
<stop offset="0.459" stop-color="#C49C17"/>
<stop offset="1" stop-color="#FFCC00"/>
</linearGradient>
<radialGradient id="paint9_radial" cx="0" cy="0" r="1" gradientUnits="userSpaceOnUse" gradientTransform="translate(79.5472 18.5049) scale(20.6298 4.5782)">
<stop stop-color="#FFCC00"/>
<stop offset="0.541" stop-color="#C49C17"/>
<stop offset="1" stop-color="#EEDA32"/>
</radialGradient>
<linearGradient id="paint10_linear" x1="75.125" y1="17.7104" x2="82.932" y2="17.7104" gradientUnits="userSpaceOnUse">
<stop stop-color="#EEDA32"/>
<stop offset="0.459" stop-color="#C49C17"/>
<stop offset="1" stop-color="#FFCC00"/>
</linearGradient>
<radialGradient id="paint11_radial" cx="0" cy="0" r="1" gradientUnits="userSpaceOnUse" gradientTransform="translate(79.0419 17.4846) scale(20.6299 4.5782)">
<stop stop-color="#FFCC00"/>
<stop offset="0.541" stop-color="#C49C17"/>
<stop offset="1" stop-color="#EEDA32"/>
</radialGradient>
</defs>
</svg>
